<?xml version="1.0" standalone="no"?>
<!DOCTYPE svg PUBLIC "-//W3C//DTD SVG 20010904//EN"
 "http://www.w3.org/TR/2001/REC-SVG-20010904/DTD/svg10.dtd">
<svg version="1.0" xmlns="http://www.w3.org/2000/svg"
 width="720.000000pt" height="720.000000pt" viewBox="0 0 720.000000 720.000000"
 preserveAspectRatio="xMidYMid meet">
<metadata>
Created by potrace 1.14, written by Peter Selinger 2001-2017
</metadata>
<g transform="translate(0.000000,720.000000) scale(0.100000,-0.100000)"
fill="#000000" stroke="none">
<path d="M379 6496 c-2 -2 -18 -6 -36 -9 -92 -15 -217 -107 -277 -206 -71
-117 -66 96 -66 -2681 0 -2248 2 -2511 16 -2565 24 -90 44 -123 124 -205 60
-61 142 -105 223 -121 71 -13 6428 -12 6487 2 160 36 304 182 340 342 14 64
14 5036 -1 5092 -5 22 -11 45 -12 50 -5 16 -40 89 -52 104 -57 79 -168 160
-260 189 -21 7 -6479 15 -6486 8z m697 -896 c19 4 36 4 39 0 3 -4 21 -4 40 0
19 4 37 4 40 0 3 -4 21 -4 40 0 19 4 37 4 40 0 3 -4 21 -4 40 0 19 4 37 4 40
0 3 -4 21 -4 40 0 19 4 37 4 40 0 3 -4 21 -4 40 0 19 4 37 4 40 -1 3 -4 11 -6
18 -4 23 9 82 11 115 4 17 -4 34 -3 37 1 3 4 21 4 40 0 19 -4 35 -5 35 -1 0 7
219 5 226 -2 3 -3 17 -2 32 2 15 4 39 4 54 0 14 -4 29 -4 32 -1 6 5 55 4 121
-2 11 -1 35 1 53 5 17 4 34 3 37 -1 3 -4 21 -4 40 0 19 4 37 4 40 0 3 -4 21
-4 40 0 19 4 37 4 40 0 3 -4 22 -4 42 1 21 4 38 8 38 8 0 -6 87 -14 90 -9 3 4
21 4 40 0 19 -4 35 -5 35 -1 0 3 20 6 45 6 25 0 45 -3 45 -6 0 -3 17 -3 38 1
20 3 54 3 75 -1 20 -3 39 -3 42 1 2 4 24 4 47 1 24 -4 57 -4 73 -1 17 3 44 3
61 -1 18 -3 37 -3 44 1 6 4 29 4 51 0 22 -4 42 -4 44 0 3 4 21 4 40 0 19 -4
35 -5 35 -1 0 3 20 6 45 6 25 0 45 -3 45 -6 0 -3 17 -3 38 1 20 3 54 3 75 -1
20 -3 39 -3 42 1 2 4 24 4 47 1 24 -4 57 -4 73 -1 17 3 44 3 60 0 17 -4 39 -4
50 0 10 4 36 3 57 0 21 -4 38 -5 38 -1 0 7 118 4 137 -3 7 -3 15 -2 17 3 3 4
25 5 49 1 24 -3 52 -3 63 0 10 4 33 4 51 -1 18 -4 33 -4 33 0 0 3 24 5 52 3
92 -5 198 -3 207 3 5 3 12 1 15 -4 3 -5 21 -5 41 -1 19 4 37 4 40 0 3 -4 21
-4 40 0 19 4 37 4 40 -1 3 -4 11 -6 18 -4 23 9 82 11 115 4 17 -4 34 -3 37 1
3 4 21 4 40 0 19 -4 35 -5 35 -1 0 7 219 5 226 -2 3 -3 17 -2 32 2 15 4 39 4
54 0 14 -4 29 -4 32 -1 6 5 55 4 121 -2 11 -1 35 1 53 5 17 4 34 3 37 -1 3 -4
21 -4 40 0 19 4 37 4 40 0 3 -4 21 -4 40 0 20 4 38 4 41 -1 3 -5 10 -6 16 -3
13 9 134 8 148 -1 5 -3 10 -3 10 2 0 8 115 7 137 -1 7 -3 15 -2 17 3 3 4 25 5
48 2 24 -4 57 -4 73 -1 17 4 39 3 50 0 11 -4 29 -4 39 0 11 4 34 4 50 0 l31
-6 3 -1997 2 -1997 -42 -1 c-24 0 -70 0 -103 1 -61 2 -73 2 -135 1 -19 0 -42
-1 -50 -1 -8 0 -23 -1 -34 -3 -10 -2 -38 0 -62 3 -24 4 -44 4 -44 1 0 -3 -35
-5 -77 -4 -71 2 -147 3 -198 3 -57 0 -72 -1 -95 -3 -14 -1 -42 0 -63 4 -20 3
-40 3 -42 -1 -3 -4 -20 -5 -37 -1 -18 3 -51 4 -73 1 -22 -3 -51 -3 -65 1 -14
3 -34 3 -44 -1 -11 -4 -37 -3 -58 0 -21 4 -41 4 -43 0 -3 -4 -20 -4 -39 0 -19
4 -37 6 -39 4 -5 -5 -85 -6 -140 -1 -21 1 -43 0 -49 -4 -5 -4 -25 -3 -44 1
-19 4 -36 5 -38 1 -5 -7 -101 -4 -123 4 -7 2 -13 1 -13 -3 0 -4 -35 -6 -77 -5
-71 2 -147 3 -198 3 -57 0 -72 -1 -95 -3 -14 -1 -42 0 -63 4 -20 3 -40 3 -42
-1 -3 -4 -20 -4 -39 0 -19 4 -37 6 -39 4 -2 -3 -26 -4 -53 -4 -27 0 -58 0 -69
0 -11 0 -40 1 -65 1 -25 0 -49 0 -55 0 -18 -1 -130 -1 -145 0 -8 0 -46 0 -85
0 -38 0 -77 0 -85 0 -8 0 -42 0 -75 0 -33 -1 -67 0 -75 0 -8 0 -45 0 -82 -1
-37 -1 -71 1 -77 4 -5 4 -12 2 -15 -3 -3 -5 -21 -6 -40 -1 -19 4 -37 6 -39 4
-5 -5 -85 -6 -140 -1 -21 1 -43 0 -49 -4 -5 -4 -25 -3 -44 1 -19 4 -36 5 -38
1 -5 -7 -101 -4 -123 4 -7 2 -13 1 -13 -3 0 -4 -35 -6 -77 -5 -71 2 -147 3
-198 3 -57 0 -72 -1 -95 -3 -14 -1 -42 0 -63 4 -20 3 -40 3 -42 -1 -3 -4 -20
-4 -39 0 -19 4 -37 6 -39 4 -2 -3 -26 -4 -53 -4 -27 0 -58 0 -69 0 -11 0 -40
1 -65 1 -25 0 -49 0 -55 0 -18 -1 -130 -1 -145 0 -8 0 -46 0 -85 0 -38 0 -77
0 -85 0 -8 0 -42 0 -75 0 -33 -1 -67 0 -75 0 -8 0 -45 0 -82 -1 -37 -1 -71 1
-77 4 -5 4 -12 2 -15 -3 -3 -5 -20 -6 -38 -2 -18 4 -51 4 -73 1 -22 -3 -51 -3
-65 0 -14 3 -44 3 -67 0 -24 -4 -45 -5 -48 -2 -3 3 -5 904 -5 2003 l0 1998 56
0 c30 -1 58 2 61 5 4 4 11 2 16 -3 5 -5 24 -5 43 -1z"/>
<path d="M3720 5218 c-22 -11 -49 -33 -60 -48 -19 -26 -47 -118 -55 -178 -2
-15 -4 -27 -5 -27 -2 0 -4 -11 -18 -75 -6 -25 -13 -54 -15 -65 -4 -15 -72
-316 -112 -495 -2 -8 -4 -23 -4 -32 -2 -28 -29 -47 -69 -47 -20 0 -48 -2 -62
-6 -14 -3 -41 -8 -60 -11 -125 -19 -346 -82 -377 -107 -7 -5 -13 -6 -13 -2 0
4 -11 0 -25 -9 -14 -9 -25 -15 -25 -12 0 2 -45 -20 -100 -50 l-101 -53 -40 21
c-98 51 -248 56 -360 12 -57 -22 -115 -62 -162 -111 -42 -42 -103 -158 -113
-213 -14 -75 -6 -218 15 -244 5 -6 12 -22 16 -36 10 -33 57 -101 93 -134 27
-26 28 -29 26 -129 -5 -214 58 -400 196 -582 8 -11 54 -59 102 -107 148 -148
351 -268 584 -347 66 -22 130 -42 144 -45 14 -2 45 -9 70 -14 25 -6 68 -13 95
-17 28 -4 61 -9 75 -12 37 -7 433 -11 445 -4 6 3 17 6 25 7 8 1 35 5 60 7 209
25 491 125 675 240 172 107 335 273 416 422 17 33 36 66 42 73 5 6 6 12 2 12
-4 0 -3 6 2 13 10 12 39 93 49 138 16 71 19 104 19 203 l0 110 53 49 c28 28
52 55 52 60 0 6 7 18 15 27 30 33 57 133 60 216 4 183 -93 347 -250 423 -90
43 -116 49 -214 47 -83 -1 -94 -4 -167 -41 -75 -38 -81 -40 -109 -26 -16 8
-32 17 -35 20 -16 20 -257 121 -290 122 -3 1 -9 4 -15 9 -14 11 -260 68 -325
75 -96 10 -95 10 -91 36 5 32 9 53 11 57 3 3 6 13 14 57 4 22 12 54 16 70 5
17 11 41 14 55 2 14 11 52 19 85 16 60 27 107 31 135 1 8 5 24 9 35 3 11 9 36
12 55 3 19 9 38 13 42 4 4 48 -2 97 -13 50 -11 122 -27 160 -35 171 -37 162
-33 175 -77 50 -168 236 -275 412 -238 186 40 308 203 294 394 -3 36 -9 74
-14 84 -5 10 -16 31 -23 47 -8 16 -31 48 -52 72 -133 152 -376 165 -521 29
-39 -38 -43 -38 -121 -19 -5 1 -21 4 -35 7 -56 12 -207 47 -221 51 -8 3 -30 7
-49 10 -36 6 -44 7 -120 27 -45 11 -68 16 -115 23 -14 2 -43 -6 -65 -16z
m-635 -1791 c22 -12 50 -40 63 -62 19 -34 22 -49 18 -98 -9 -95 -67 -147 -161
-143 -70 3 -106 26 -141 90 -74 135 87 290 221 213z m1155 -4 c14 -6 34 -21
45 -34 66 -76 57 -176 -21 -235 -31 -24 -47 -29 -95 -29 -46 1 -63 6 -94 29
-96 73 -82 214 27 271 27 14 103 13 138 -2z"/>
</g>
</svg>
